<svg xmlns="http://www.w3.org/2000/svg" xmlns:xlink="http://www.w3.org/1999/xlink" id="Layer_1" x="0px" y="0px" width="400px" height="261.36px" viewBox="0 0 400 261.36" style="enable-background:new 0 0 400 261.36;" xml:space="preserve">
<style type="text/css">
	.st0{fill:#FFFFFF;}
	.st1{fill:#E1F2FF;}
	.st2{fill:#22333F;}
	.st3{fill:#34D7A1;}
</style>
<rect x="-0.13" y="0.82" class="st0" width="400.25" height="261.36"></rect>
<g>
	<path class="st1" d="M76.85,228.34l243.19,4.74c11.48,0.16,20.69-9.47,19.96-20.9l11.06-165.11c-0.57-9.06-7.98-16.09-17.02-16.17   L71.29,28.28c-6.76-0.08-12.38,5.31-12.63,12.09l3.29,172.29C61.62,221.07,68.38,228.18,76.85,228.34z"></path>
</g>
<g id="XMLID_2_">
	<g id="XMLID_227_">
		<g id="XMLID_4_">
			<g>
				<path class="st2" d="M285.51,135.239c0,0.632-0.506,1.146-1.131,1.146h-2.128c-2.314,0-4.323,1.548-4.955,3.779      c-0.097,0.99-0.149,1.986-0.149,2.983v12.082c0,5.253-1.994,10.23-5.617,14.002l-0.923,0.96      c-1.19,1.242-2.954,1.719-4.598,1.235s-2.887-1.83-3.236-3.527l-3.586-17.313c-0.119-0.543-0.417-1.042-0.848-1.399      c-0.432-0.357-0.975-0.551-1.533-0.551c-1.138,0-2.143,0.826-2.373,1.957l-3.564,17.395c-0.446,2.187-2.314,3.72-4.538,3.72      c-1.228,0-2.381-0.484-3.251-1.369c-3.757-3.794-5.825-8.846-5.825-14.218v-10.602c0-3.028-0.439-5.989-1.309-8.854h-9.679      c-0.461,2.12-0.699,4.285-0.699,6.473v12.082c0,5.253-1.994,10.23-5.617,14.002l-0.923,0.96      c-1.19,1.242-2.954,1.719-4.598,1.235s-2.887-1.83-3.236-3.527l-3.586-17.313c-0.119-0.551-0.417-1.042-0.848-1.399      s-0.975-0.551-1.533-0.551c-1.138,0-2.143,0.826-2.373,1.957l-3.564,17.395c-0.446,2.187-2.314,3.72-4.538,3.72      c-1.22,0-2.373-0.484-3.244-1.369c-3.757-3.794-5.825-8.846-5.825-14.218v-10.602c0-3.028-0.439-5.989-1.309-8.854h-9.679      c-0.461,2.12-0.699,4.285-0.699,6.473v12.082c0,5.253-1.994,10.23-5.617,14.002l-0.923,0.96      c-1.19,1.242-2.954,1.719-4.598,1.235s-2.887-1.83-3.236-3.527l-3.586-17.313c-0.119-0.543-0.417-1.042-0.848-1.399      s-0.975-0.551-1.533-0.551c-1.138,0-2.143,0.826-2.373,1.957l-3.564,17.395c-0.446,2.187-2.314,3.72-4.538,3.72      c-1.228,0-2.381-0.484-3.251-1.369c-3.757-3.794-5.825-8.846-5.825-14.218v-10.602c0-1.92-0.186-3.809-0.536-5.662      c-0.722-2.076-2.656-3.482-4.866-3.482h-3.348c-0.625,0-1.131-0.513-1.131-1.146c0-0.632,0.506-1.146,1.131-1.146h3.348      c1.265,0,2.47,0.327,3.527,0.9c-0.164-0.454-0.342-0.908-0.536-1.362l-4.672-11.086c-0.625-1.897-0.93-3.876-0.893-5.892      c0.171-9.545,7.991-17.313,17.439-17.313c2.775,0,5.424,0.64,7.879,1.897c0.283,0.141,0.58,0.238,0.878,0.305      c2.492-1.681,5.081-3.958,7.626-6.733c-0.699-0.915-1.042-2.061-0.952-3.214l0.156,0.015l2.306,1.317      c0.007,0.037,0.03,0.067,0.045,0.104c0.015-0.007,0.022-0.015,0.037-0.03c0.007-0.007,0.015-0.015,0.015-0.022l2.083,1.19      c0,0.037-0.007,0.074-0.015,0.112c0.06,0,0.119-0.007,0.179-0.015l2.091,1.19l10.84-19.002l0.268,0.141l-9.419,17.573      c-0.826,1.533-2.396,2.411-4.018,2.411c-0.104,0-0.201-0.015-0.305-0.022c-0.193,0.945-0.409,1.875-0.647,2.783      c4.65,0.015,9.017,1.867,12.313,5.238c1.748,1.793,3.073,3.884,3.928,6.16c2.515-6.651,8.913-11.405,16.308-11.405      c2.768,0,5.416,0.64,7.871,1.897c0.997,0.513,2.187,0.521,3.169,0.015c0.112-0.06,0.223-0.112,0.335-0.164      c0.045-0.022,0.089-0.052,0.134-0.067c2.284-1.094,4.732-1.659,7.291-1.681c0.045,0,0.089,0,0.134,0      c4.672,0,9.069,1.853,12.38,5.238c1.748,1.793,3.073,3.884,3.928,6.16c2.515-6.644,8.913-11.398,16.308-11.398      c2.775,0,5.424,0.64,7.879,1.897c0.997,0.513,2.187,0.521,3.169,0.015c0.104-0.052,0.216-0.097,0.32-0.149      c0.052-0.03,0.104-0.052,0.156-0.074c2.284-1.094,4.732-1.659,7.291-1.681c0.045,0,0.089,0,0.134,0      c4.672,0,9.069,1.853,12.38,5.238c3.348,3.422,5.141,7.931,5.059,12.715c-0.037,1.823-0.342,3.616-0.915,5.327l-3.586,11.16      c-0.164,0.513-0.312,1.034-0.446,1.555c1.176-0.789,2.589-1.235,4.085-1.235h2.128      C284.982,134.079,285.496,134.585,285.51,135.239z M280.846,117.212c0.074-4.159-1.495-8.087-4.404-11.063      c-2.879-2.946-6.703-4.561-10.773-4.561c-0.045,0-0.082,0-0.119,0c-2.254,0.015-4.412,0.521-6.421,1.495      c-0.751,0.469-5.186,3.192-9.412,3.958c-0.067,0.007-0.134,0.015-0.201,0.015c-0.543,0-1.019-0.394-1.116-0.945      c-0.112-0.618,0.298-1.213,0.915-1.324c1.51-0.275,3.088-0.841,4.471-1.458c-0.074-0.03-0.149-0.06-0.223-0.097      c-2.135-1.094-4.442-1.652-6.852-1.652c-8.221,0-15.029,6.763-15.178,15.066c-0.03,1.734,0.231,3.445,0.766,5.081l4.628,10.959      c1.719,4.07,2.589,8.377,2.589,12.797v10.602c0,4.762,1.83,9.233,5.163,12.603c0.565,0.58,1.205,0.699,1.644,0.699      c0.93,0,2.053-0.595,2.321-1.897l3.564-17.395c0.446-2.187,2.381-3.779,4.59-3.779c1.079,0,2.128,0.379,2.961,1.064      c0.826,0.684,1.406,1.644,1.629,2.708l3.586,17.313c0.179,0.878,0.796,1.555,1.644,1.8c0.848,0.253,1.726,0.015,2.344-0.625      l0.923-0.96c3.207-3.341,4.977-7.752,4.977-12.41l0.015-12.112c0-1.004,0.052-2.009,0.141-3.006      c-0.015-0.119-0.007-0.238,0.022-0.357c0.007-0.015,0.007-0.03,0.015-0.045c0.238-2.254,0.699-4.486,1.399-6.659l3.594-11.182      C280.548,120.36,280.816,118.797,280.846,117.212z M235.127,134.369c-0.097-0.253-0.193-0.506-0.298-0.759l-4.404-10.446      l-3.408,10.594c-0.06,0.201-0.119,0.409-0.179,0.61H235.127z M229.264,117.235c0.074-4.159-1.495-8.087-4.404-11.063      c-2.879-2.946-6.703-4.561-10.773-4.561c-0.045,0-0.082,0-0.119,0c-2.254,0.015-4.412,0.521-6.421,1.495      c-0.751,0.469-5.186,3.192-9.412,3.958c-0.067,0.007-0.134,0.015-0.201,0.015c-0.543,0-1.019-0.394-1.116-0.945      c-0.112-0.618,0.298-1.213,0.915-1.324c1.51-0.268,3.088-0.841,4.471-1.458c-0.074-0.03-0.149-0.06-0.223-0.097      c-2.135-1.094-4.442-1.652-6.852-1.652c-8.221,0-15.029,6.763-15.178,15.066c-0.03,1.741,0.231,3.445,0.766,5.081l4.628,10.959      c0.32,0.766,0.61,1.548,0.87,2.329c0.952,2.321,1.696,7.41,1.726,10.446v10.602c0,4.762,1.83,9.233,5.163,12.603      c0.573,0.58,1.205,0.699,1.644,0.699c0.93,0,2.053-0.595,2.321-1.897l3.564-17.395c0.446-2.187,2.373-3.779,4.59-3.779      c1.079,0,2.128,0.379,2.961,1.064c0.826,0.684,1.406,1.644,1.629,2.708l3.586,17.313c0.186,0.878,0.804,1.555,1.652,1.8      c0.856,0.253,1.726,0.015,2.344-0.625l0.923-0.96c3.207-3.341,4.977-7.752,4.977-12.41v-12.082      c0-3.422,0.528-6.815,1.577-10.074l3.593-11.182C228.967,120.382,229.235,118.819,229.264,117.235z M183.561,134.369      c-0.097-0.253-0.193-0.506-0.298-0.759l-4.404-10.446l-3.407,10.594c-0.06,0.201-0.119,0.409-0.179,0.61H183.561z       M177.705,117.205c0.074-4.159-1.495-8.087-4.404-11.063c-2.879-2.946-6.703-4.561-10.773-4.561c-0.045,0-0.082,0-0.119,0      c-0.164,0-0.327,0.007-0.491,0.015c-3.236,10.036-9.479,16.792-16.033,16.792c-0.454,0-0.915-0.03-1.376-0.097      c-0.618-0.089-1.049-0.67-0.96-1.295s0.662-1.056,1.28-0.967c5.208,0.759,10.528-4.256,13.823-12.142      c-4.523,6.897-10.364,11.1-15.728,11.1c-1.153,0-2.284-0.193-3.378-0.595c-0.58-0.216-0.885-0.87-0.67-1.466      c0.216-0.588,0.863-0.893,1.451-0.677c4.672,1.734,10.498-1.57,15.2-7.879c-4.568,4.315-9.538,6.763-13.913,6.763      c-1.853,0-3.593-0.439-5.148-1.354c-0.543-0.312-0.722-1.019-0.409-1.562c0.312-0.551,1.004-0.737,1.548-0.417      c3.809,2.239,9.196,0.751,14.352-3.363c-3.021,1.763-5.907,2.708-8.482,2.708c-0.439,0-0.863-0.03-1.28-0.082      c-0.618-0.082-1.056-0.655-0.975-1.28c0.074-0.625,0.647-1.071,1.265-0.99c2.135,0.275,4.672-0.379,7.395-1.823      c-1.979-0.923-4.099-1.391-6.309-1.391c-8.221,0-15.029,6.763-15.178,15.066c-0.03,1.741,0.231,3.445,0.766,5.081l4.628,10.959      c0.9,2.135,1.562,4.345,1.994,6.592c0.045,0.156,0.097,0.305,0.134,0.461c0.037,0.141,0.037,0.283,0.022,0.424      c0.29,1.748,0.439,3.527,0.439,5.32v10.602c0,4.762,1.83,9.233,5.163,12.603c0.565,0.58,1.205,0.699,1.644,0.699      c0.93,0,2.053-0.595,2.321-1.897l3.564-17.395c0.446-2.187,2.381-3.779,4.59-3.779c1.079,0,2.128,0.379,2.961,1.064      c0.826,0.684,1.406,1.644,1.629,2.708l3.586,17.313c0.179,0.878,0.796,1.555,1.644,1.8c0.848,0.253,1.726,0.015,2.344-0.625      l0.923-0.96c3.207-3.341,4.977-7.752,4.977-12.41l0.015-12.112c0-3.422,0.528-6.815,1.577-10.074l3.593-11.182      C177.408,120.352,177.676,118.79,177.705,117.205z"></path>
				<path class="st0" d="M276.441,106.149c2.909,2.976,4.479,6.904,4.404,11.063c-0.03,1.585-0.298,3.147-0.796,4.635l-3.594,11.182      c-0.699,2.172-1.161,4.404-1.399,6.659c-0.007,0.015-0.007,0.03-0.015,0.045c-0.03,0.119-0.037,0.238-0.022,0.357      c-0.089,0.997-0.141,2.001-0.141,3.006l-0.015,12.112c0,4.657-1.771,9.069-4.977,12.41l-0.923,0.96      c-0.617,0.64-1.495,0.878-2.344,0.625c-0.848-0.246-1.466-0.923-1.644-1.8l-3.586-17.313c-0.223-1.064-0.804-2.024-1.629-2.708      c-0.833-0.684-1.882-1.064-2.961-1.064c-2.21,0-4.144,1.592-4.59,3.779l-3.564,17.395c-0.268,1.302-1.391,1.897-2.321,1.897      c-0.439,0-1.079-0.119-1.644-0.699c-3.333-3.37-5.163-7.842-5.163-12.603v-10.602c0-4.419-0.87-8.727-2.589-12.797      l-4.628-10.959c-0.536-1.637-0.796-3.348-0.766-5.081c0.149-8.303,6.956-15.066,15.178-15.066c2.411,0,4.717,0.558,6.852,1.652      c0.074,0.037,0.149,0.067,0.223,0.097c-1.384,0.618-2.961,1.183-4.471,1.458c-0.618,0.112-1.027,0.707-0.915,1.324      c0.097,0.551,0.573,0.945,1.116,0.945c0.067,0,0.134-0.007,0.201-0.015c4.226-0.766,8.66-3.489,9.412-3.958      c2.009-0.975,4.166-1.481,6.421-1.495c0.037,0,0.074,0,0.119,0C269.738,101.589,273.562,103.203,276.441,106.149z"></path>
				<path class="st0" d="M224.86,106.172c2.909,2.976,4.479,6.904,4.404,11.063c-0.03,1.585-0.298,3.147-0.796,4.635l-3.593,11.182      c-1.049,3.259-1.577,6.651-1.577,10.074v12.082c0,4.657-1.771,9.069-4.977,12.41l-0.923,0.96      c-0.618,0.64-1.488,0.878-2.344,0.625c-0.848-0.246-1.466-0.923-1.652-1.8l-3.586-17.313c-0.223-1.064-0.804-2.024-1.629-2.708      c-0.833-0.684-1.882-1.064-2.961-1.064c-2.217,0-4.144,1.592-4.59,3.779l-3.564,17.395c-0.268,1.302-1.391,1.897-2.321,1.897      c-0.439,0-1.071-0.119-1.644-0.699c-3.333-3.37-5.163-7.842-5.163-12.603v-10.602c-0.03-3.035-0.774-8.124-1.726-10.446      c-0.26-0.781-0.551-1.562-0.87-2.329l-4.628-10.959c-0.536-1.637-0.796-3.341-0.766-5.081      c0.149-8.303,6.956-15.066,15.178-15.066c2.411,0,4.717,0.558,6.852,1.652c0.074,0.037,0.149,0.067,0.223,0.097      c-1.384,0.618-2.961,1.19-4.471,1.458c-0.618,0.112-1.027,0.707-0.915,1.324c0.097,0.551,0.573,0.945,1.116,0.945      c0.067,0,0.134-0.007,0.201-0.015c4.226-0.766,8.66-3.489,9.412-3.958c2.009-0.975,4.166-1.481,6.421-1.495      c0.037,0,0.074,0,0.119,0C218.157,101.611,221.981,103.225,224.86,106.172z"></path>
				<path class="st0" d="M173.301,106.142c2.909,2.976,4.479,6.904,4.404,11.063c-0.03,1.585-0.298,3.147-0.796,4.635l-3.593,11.182      c-1.049,3.259-1.577,6.651-1.577,10.074l-0.015,12.112c0,4.657-1.771,9.069-4.977,12.41l-0.923,0.96      c-0.618,0.64-1.495,0.878-2.344,0.625c-0.848-0.246-1.466-0.923-1.644-1.8l-3.586-17.313c-0.223-1.064-0.804-2.024-1.629-2.708      c-0.833-0.684-1.882-1.064-2.961-1.064c-2.21,0-4.144,1.592-4.59,3.779l-3.564,17.395c-0.268,1.302-1.391,1.897-2.321,1.897      c-0.439,0-1.079-0.119-1.644-0.699c-3.333-3.37-5.163-7.842-5.163-12.603v-10.602c0-1.793-0.149-3.571-0.439-5.32      c0.015-0.141,0.015-0.283-0.022-0.424c-0.037-0.156-0.089-0.305-0.134-0.461c-0.432-2.247-1.094-4.457-1.994-6.592      l-4.628-10.959c-0.536-1.637-0.796-3.341-0.766-5.081c0.149-8.303,6.956-15.066,15.178-15.066c2.21,0,4.33,0.469,6.309,1.391      c-2.723,1.443-5.26,2.098-7.395,1.823c-0.618-0.082-1.19,0.365-1.265,0.99c-0.082,0.625,0.357,1.198,0.975,1.28      c0.417,0.052,0.841,0.082,1.28,0.082c2.574,0,5.461-0.945,8.482-2.708c-5.156,4.114-10.542,5.602-14.352,3.363      c-0.543-0.32-1.235-0.134-1.548,0.417c-0.312,0.543-0.134,1.25,0.409,1.562c1.555,0.915,3.296,1.354,5.148,1.354      c4.375,0,9.345-2.448,13.913-6.763c-4.702,6.309-10.528,9.612-15.2,7.879c-0.588-0.216-1.235,0.089-1.451,0.677      c-0.216,0.595,0.089,1.25,0.67,1.466c1.094,0.402,2.225,0.595,3.378,0.595c5.364,0,11.205-4.204,15.728-11.1      c-3.296,7.886-8.615,12.901-13.823,12.142c-0.618-0.089-1.19,0.342-1.28,0.967s0.342,1.205,0.96,1.295      c0.461,0.067,0.923,0.097,1.376,0.097c6.555,0,12.797-6.755,16.033-16.792c0.164-0.007,0.327-0.015,0.491-0.015      c0.037,0,0.074,0,0.119,0C166.598,101.581,170.422,103.196,173.301,106.142z"></path>
				<path class="st2" d="M176.746,74.656c0.551,0.298,0.751,0.99,0.454,1.548l-0.201,0.372l-0.268-0.141l-6.034-3.713L159.15,91.589      l-0.156-0.015c0.045-0.625,0.223-1.242,0.536-1.823l9.657-17.938c0.141-0.268,0.379-0.461,0.67-0.551s0.595-0.052,0.863,0.089      L176.746,74.656z"></path>
				<path class="st2" d="M176.731,76.434l-10.84,19.002l-2.091-1.19c0.714-0.082,1.384-0.506,1.756-1.19l9.084-16.941l-4.04-2.21      l-9.084,16.941c-0.35,0.662-0.35,1.428-0.06,2.061l-2.306-1.317l11.547-18.868L176.731,76.434z"></path>
				<path class="st3" d="M174.64,76.114l-9.084,16.941c-0.372,0.684-1.042,1.109-1.756,1.19l-0.164-0.097      c0.022-0.089,0.037-0.186,0.045-0.275c0.015-0.089,0.015-0.171,0.007-0.26c0.022-0.35-0.104-0.714-0.394-0.96      c-0.476-0.409-1.19-0.35-1.592,0.134c-0.045,0.06-0.097,0.112-0.149,0.171l-0.097-0.052c-0.29-0.632-0.29-1.399,0.06-2.061      l9.084-16.941L174.64,76.114z"></path>
				<path class="st2" d="M163.689,93.613c0.007,0.089,0.007,0.171-0.007,0.26c-0.007,0.089-0.022,0.186-0.045,0.275l-2.083-1.19      c0.052-0.06,0.104-0.112,0.149-0.171c0.402-0.484,1.116-0.543,1.592-0.134C163.584,92.899,163.711,93.263,163.689,93.613z"></path>
			</g>
			<g>
			</g>
		</g>
	</g>
</g>
<path id="XMLID_228_" class="st2" d="M163.346,107.325c-0.625,0-1.131,0.513-1.131,1.146c0,0.632,0.506,1.146,1.131,1.146  c3.378,0,6.116,2.775,6.116,6.183c0,0.632,0.506,1.146,1.131,1.146s1.131-0.513,1.131-1.146  C171.724,111.127,167.967,107.325,163.346,107.325z"></path>
<path id="XMLID_238_" class="st2" d="M214.913,107.325c-0.625,0-1.131,0.513-1.131,1.146c0,0.632,0.506,1.146,1.131,1.146  c3.378,0,6.116,2.775,6.116,6.183c0,0.632,0.506,1.146,1.131,1.146s1.131-0.513,1.131-1.146  C223.298,111.127,219.533,107.325,214.913,107.325z"></path>
<path id="XMLID_5_" class="st2" d="M266.62,107.325c-0.625,0-1.131,0.513-1.131,1.146c0,0.632,0.506,1.146,1.131,1.146  c3.378,0,6.116,2.775,6.116,6.183c0,0.632,0.506,1.146,1.131,1.146c0.625,0,1.131-0.513,1.131-1.146  C275.005,111.127,271.241,107.325,266.62,107.325z"></path>
</svg>